# xmcd
#
# Track frame offsets:
#	150
#	14101
#	25844
#	40489
#	55331
#	69186
#	86640
#	98745
#	115839
#	134002
#	147922
#	167224
#	178344
#	193790
#	207402
#	223798
#	240995
#	258026
#	273932
#	288108
#	300801
#	315440
#
# Disc length: 4435 seconds
#
# Revision: 2
# Processed by: cddbd v1.4b41PL1 Copyright (c) Steve Scherf et al.
# Submitted via: audiograbber 1.80
#
DISCID=3e115116
DTITLE=VariousCountry Artists - Coantemporary Country- The Mid '80's
DYEAR=1900
DGENRE=
TTITLE0=Dwight Yoakam - Guitars, Cadiliacs
TTITLE1=Steve Earle - Guitar Town
TTITLE2=The Judds - Mama He's Crazy
TTITLE3=George Strait - Does Fort Worth Ever Cross Your Mind
TTITLE4=Kris Kristofferson, Willie Nelson, Waylon Jennings, Johnny Cash - Highw
TTITLE4=ayman
TTITLE5=Kenny Loggins - Nobody Loves Me Like You Do- Murray, Anne
TTITLE6=Vern Gosdin - I Can Tell By The Way You Dance (You're Gonna Love Me Ton
TTITLE6=ight)
TTITLE7=Kenny Rogers - Morning Desire
TTITLE8=The Statler Brothers - Too Much On My Heart
TTITLE9=Merle Haggard - That's The Way Love Goes
TTITLE10=Ronnie Milsap - Lost In The Fifties Tonight (In The Still Of The Night
TTITLE10=)
TTITLE11=Hank Williams Jr. - Mind You Own Business
TTITLE12=Rosanne Cash - Never Be You
TTITLE13=Mel Mcdaniel - Baby's Got Her Blue Jeans On
TTITLE14=Dan Seals - Bop
TTITLE15=Kenny Rogers and  Dolly Parton - Real Love
TTITLE16=Alabama - Roll On (Eighteen Wheeler)
TTITLE17=The Nitty Gritty Dirt Band - Modern Day Romance
TTITLE18=Randy Travis - On The Other Hand
TTITLE19=The Forester Sisters - Mam's Neve Seen Those Eyes
TTITLE20=Lee Greenwood - Dixie Road
TTITLE21=Ricky Skaggs - Country Boy
EXTD=added artists names
EXTT0=
EXTT1=
EXTT2=
EXTT3=
EXTT4=
EXTT5=
EXTT6=
EXTT7=
EXTT8=
EXTT9=
EXTT10=
EXTT11=
EXTT12=
EXTT13=
EXTT14=
EXTT15=
EXTT16=
EXTT17=
EXTT18=
EXTT19=
EXTT20=
EXTT21=
PLAYORDER=
